# xmcd
#
# Track frame offsets:
#	150
#	37970
#	93720
#	139832
#	185055
#	236170
#	297310
#
# Disc length: 4593 seconds
#
# Revision: 0
# Processed by: cddbd v1.5.1PL0 Copyright (c) Steve Scherf et al.
# Submitted via: audiograbber 1.83.01
#
DISCID=6911ef07
DTITLE=Tony Remy's Blue Vibe - Jammin' At The 12 Bar Club
DYEAR=1998
DGENRE=Blues
TTITLE0=King Binks Slam
TTITLE1=Back Seat Betty/Wheel-Up
TTITLE2=On The Bench
TTITLE3=One Of These Days
TTITLE4=Ah Definitely
TTITLE5=Jazz Money
TTITLE6=Killa In Soho
EXTD=Recorded LIVE at the 12 Bar Club, London, England in March, 1998\nBand: To
EXTD=ny Remy (Guitar), Julian Crampton (Bass) and Peter Lewinson (Drums]\nSpeci
EXTD=al Guests: Jean Toussaint (Soprano Sax), Nick Cohen (Bass) and Steve Lewin
EXTD=son (Bass]\nProduced and Distributed by Alltone Records Inc., London,Engla
EXTD=nd
EXTT0=
EXTT1=
EXTT2=
EXTT3=
EXTT4=
EXTT5=
EXTT6=
PLAYORDER=
